<?xml version="1.0" standalone="no"?>
<!DOCTYPE svg PUBLIC "-//W3C//DTD SVG 20010904//EN"
 "http://www.w3.org/TR/2001/REC-SVG-20010904/DTD/svg10.dtd">
<svg version="1.0" xmlns="http://www.w3.org/2000/svg"
 width="859.000000pt" height="859.000000pt" viewBox="0 0 859.000000 859.000000"
 preserveAspectRatio="xMidYMid meet">

<g transform="translate(0.000000,859.000000) scale(0.100000,-0.100000)"
fill="#000000" stroke="none">
<path d="M6175 7606 c-95 -44 -147 -106 -161 -194 -9 -57 20 -147 64 -201 21
-25 60 -90 87 -145 46 -92 54 -103 98 -127 27 -14 60 -38 74 -52 l26 -25 -11
-114 c-20 -204 -21 -205 -232 -183 -97 10 -156 12 -171 6 -46 -18 -198 -180
-296 -316 -111 -154 -369 -591 -379 -641 -7 -40 21 -98 131 -264 61 -93 115
-157 206 -250 166 -167 275 -260 308 -261 14 0 57 -1 96 -2 l70 -2 12 -68 c7
-37 37 -156 67 -265 90 -325 191 -760 232 -999 15 -92 15 -93 -11 -190 -67
-254 -274 -574 -536 -828 -351 -341 -759 -591 -1355 -829 -50 -20 -97 -36
-103 -36 -24 0 -141 -59 -166 -84 -57 -57 -23 -116 101 -172 93 -43 115 -49
289 -78 577 -98 1531 -114 2075 -36 204 30 405 100 450 157 33 43 36 72 11
138 -88 234 -109 301 -176 580 -49 203 -94 519 -103 722 -11 250 0 376 56 658
115 567 163 941 161 1233 0 90 1 165 3 168 3 2 23 -5 46 -16 56 -27 66 -26
100 16 70 85 322 577 322 629 0 44 -45 115 -239 380 -146 199 -333 415 -381
440 -22 11 -104 35 -256 75 -36 9 -44 16 -58 50 -16 41 -19 109 -7 165 6 28 8
29 58 26 51 -2 52 -2 72 38 74 145 79 461 9 622 -27 65 -100 129 -185 165 -37
15 -87 45 -109 65 -63 56 -94 69 -171 69 -50 0 -81 -6 -118 -24z m-267 -1578
c12 -31 30 -76 41 -100 11 -23 34 -77 51 -118 17 -41 59 -133 92 -204 61 -126
61 -129 66 -231 4 -94 2 -112 -23 -187 -41 -125 -44 -129 -100 -149 -72 -25
-97 -23 -127 9 -100 108 -358 504 -358 549 0 24 42 91 159 255 58 81 119 170
134 199 16 28 32 48 36 43 5 -5 18 -34 29 -66z m1012 -23 c95 -48 292 -255
411 -431 49 -72 49 -75 39 -115 -6 -23 -16 -49 -21 -58 -5 -9 -24 -50 -42 -91
-19 -41 -53 -105 -75 -143 -23 -37 -42 -71 -42 -75 -1 -4 -11 -19 -23 -34
l-22 -27 -83 82 c-45 45 -93 96 -105 114 -13 18 -60 68 -105 111 -108 105
-121 135 -122 275 l0 108 47 96 c40 81 48 105 48 155 0 54 1 58 23 58 12 0 45
-11 72 -25z"/>
<path d="M1817 5884 c-111 -27 -260 -103 -383 -196 -30 -22 -52 -44 -49 -48 2
-4 -5 -16 -18 -26 -18 -16 -19 -16 -8 -1 7 9 9 17 4 17 -13 0 -55 -45 -48 -52
3 -2 -5 -13 -17 -24 -18 -15 -20 -16 -9 -1 7 9 9 17 3 17 -14 0 -144 -139
-199 -213 -62 -84 -93 -152 -93 -207 0 -52 27 -115 61 -147 67 -61 203 -85
359 -63 50 7 92 11 95 8 3 -2 -61 -60 -141 -128 -249 -211 -490 -460 -545
-562 -19 -36 -1 -16 34 36 72 108 495 517 584 564 54 29 2 -27 -124 -134 -291
-245 -491 -477 -530 -613 l-13 -46 4 45 c2 25 7 54 10 65 3 11 -1 4 -11 -15
-28 -57 -20 -157 19 -242 60 -130 129 -171 293 -172 120 -1 194 18 324 83 88
45 75 46 -21 2 -67 -31 -95 -38 -143 -38 -59 0 -60 0 -23 11 41 13 67 33 28
22 -81 -22 -189 -29 -249 -16 -69 14 -141 56 -167 95 -22 34 -36 198 -20 235
19 45 94 154 125 184 17 16 28 33 25 37 -7 12 141 164 271 278 132 117 260
221 272 221 14 1 60 44 72 67 10 19 7 27 -18 55 l-29 33 -179 0 c-189 1 -219
6 -280 52 -41 30 -42 56 -3 132 91 181 373 433 605 542 187 88 383 104 401 33
7 -29 -13 -48 -105 -101 -36 -20 -59 -39 -53 -41 12 -4 92 24 172 61 67 30 68
59 3 126 -74 76 -161 96 -286 65z m-597 -438 c0 -2 -8 -10 -17 -17 -16 -13
-17 -12 -4 4 13 16 21 21 21 13z m-50 -50 c0 -2 -8 -10 -17 -17 -16 -13 -17
-12 -4 4 13 16 21 21 21 13z m-30 -40 c0 -2 -8 -10 -17 -17 -16 -13 -17 -12
-4 4 13 16 21 21 21 13z"/>
<path d="M3513 5882 c-32 -5 -28 -22 8 -35 30 -12 31 -13 26 -62 -7 -68 -46
-156 -166 -380 -300 -559 -400 -825 -433 -1153 -8 -82 -9 -136 -2 -179 7 -43
7 -66 0 -73 -7 -7 -5 -10 4 -10 16 0 -74 -41 -147 -67 -24 -9 -43 -18 -43 -22
0 -4 -8 -7 -17 -8 -10 -1 -43 -13 -73 -26 -118 -52 -243 -61 -297 -21 -14 11
-37 42 -52 69 -25 47 -26 57 -26 195 1 156 13 232 66 419 51 179 121 351 221
546 235 456 307 614 315 688 5 47 2 56 -22 85 -22 26 -34 32 -65 32 -52 0 -58
-14 -14 -35 32 -15 35 -19 28 -48 -18 -87 -52 -167 -134 -322 -231 -435 -319
-624 -384 -820 -71 -217 -105 -448 -86 -587 31 -225 196 -348 395 -294 70 19
174 64 210 91 17 12 58 36 91 53 l62 31 33 -55 c95 -156 289 -174 507 -48 96
55 245 134 248 132 1 -2 -6 -39 -17 -83 -29 -123 -23 -185 18 -185 20 0 40 50
46 120 l6 65 -15 -43 c-9 -24 -17 -42 -19 -40 -3 3 34 201 38 203 1 1 47 27
102 59 75 42 92 55 66 51 -18 -3 -62 -21 -97 -40 -60 -33 -80 -34 -51 -3 6 7
13 27 13 44 1 17 9 46 17 65 8 19 23 60 32 92 9 32 27 82 39 110 13 29 32 72
43 98 l20 45 109 23 c60 12 207 45 326 72 244 55 262 57 254 32 -12 -40 -67
-306 -85 -413 -28 -164 -43 -319 -36 -357 4 -22 2 -33 -6 -33 -9 0 -10 -26 -6
-101 4 -56 2 -109 -2 -118 -5 -9 -6 -49 -1 -89 13 -116 59 -146 74 -47 4 29 3
34 -3 19 -24 -56 -31 -33 -33 103 -2 129 -2 132 -8 53 l-6 -85 -2 71 c-1 39 1
107 5 150 7 76 8 78 15 34 4 -29 5 -14 3 45 -2 58 0 78 5 55 l7 -35 2 40 c2
41 10 87 54 308 14 70 23 134 20 142 -3 8 -1 15 3 15 5 0 10 18 11 40 0 22 5
46 11 53 5 7 17 46 27 87 25 106 26 108 90 114 30 3 80 9 110 12 89 9 52 24
-60 24 l-103 0 28 108 c16 59 49 179 75 267 105 360 131 464 121 491 -3 8 -1
14 5 14 7 0 9 11 5 28 -5 20 -4 23 4 12 16 -24 12 115 -5 156 -30 73 -118 73
-228 0 -98 -65 -260 -247 -385 -433 -42 -62 -50 -79 -33 -68 5 3 12 1 16 -4 3
-6 -3 -8 -14 -6 -16 3 -31 -16 -79 -98 -91 -157 -94 -164 -81 -188 9 -17 8
-20 -2 -14 -8 6 -11 4 -7 -6 3 -8 -14 -52 -38 -99 -33 -64 -42 -76 -37 -50 3
19 21 66 40 104 19 37 32 70 29 73 -5 5 -116 -220 -186 -379 l-34 -77 -86 -11
c-47 -6 -98 -13 -115 -15 l-30 -5 25 21 c14 12 39 32 55 45 17 14 24 24 16 24
-27 0 -97 -40 -131 -75 -27 -28 -31 -38 -21 -48 14 -14 152 -14 219 1 23 6 42
7 42 3 0 -4 -15 -45 -34 -92 -18 -46 -53 -144 -77 -218 -47 -144 -38 -132
-142 -195 -16 -10 -26 -20 -23 -23 2 -3 29 11 58 30 29 20 54 34 56 33 13 -14
-22 -40 -86 -65 -43 -16 -92 -37 -111 -47 -35 -17 -103 -44 -246 -95 -103 -37
-187 -39 -236 -6 -35 23 -79 89 -79 119 0 10 42 40 123 86 67 38 129 72 137
75 8 4 -1 5 -20 2 -19 -2 -83 -29 -142 -60 -71 -37 -108 -52 -108 -43 0 8 17
24 38 36 20 12 32 22 26 22 -5 0 -19 -7 -30 -15 -10 -8 -23 -15 -28 -15 -15 0
1 216 23 320 55 260 111 402 357 895 123 247 200 415 211 458 17 66 17 69 -2
104 -21 39 -64 62 -102 55z m1455 -39 c35 -69 18 -162 -101 -563 -52 -173
-107 -365 -123 -426 l-28 -111 -150 -31 c-83 -17 -231 -49 -329 -71 -215 -49
-213 -49 -191 -16 9 14 14 34 11 45 -3 13 -1 18 6 13 7 -4 8 0 4 11 -4 9 -3
15 2 12 12 -8 54 83 47 101 -3 8 -2 12 2 9 12 -7 125 221 116 235 -4 7 -3 9 3
6 13 -8 96 140 87 155 -4 6 -3 8 3 5 6 -4 10 6 11 23 1 33 8 50 23 50 5 0 3
-13 -6 -30 -9 -16 -12 -30 -8 -30 15 1 50 89 40 99 -13 13 11 44 29 37 7 -3
16 -1 19 5 4 5 3 9 -2 8 -23 -4 -21 5 7 46 34 50 37 52 37 30 0 -8 -5 -11 -10
-8 -6 3 -7 1 -3 -5 3 -5 1 -12 -6 -14 -6 -2 -12 -12 -14 -21 -1 -9 2 -15 7
-11 5 3 7 10 4 15 -4 5 -2 9 4 9 5 0 20 14 32 32 13 18 17 28 8 24 -7 -5 -3 2
11 15 14 13 19 20 11 14 -9 -6 -6 4 7 22 13 18 28 36 35 39 7 4 5 -1 -3 -12
-8 -11 -5 -9 8 4 12 13 20 27 17 31 -2 5 5 17 18 27 22 19 22 19 7 -1 -10 -14
-7 -13 8 3 12 13 20 27 18 31 -6 8 110 127 122 125 16 -3 31 9 25 20 -3 6 -3
8 2 4 4 -4 20 1 34 11 32 22 100 50 123 50 10 1 21 -7 26 -16z m-1473 -322
c-21 -43 -29 -39 -8 4 9 19 18 33 21 31 2 -2 -4 -18 -13 -35z m-770 -81 c-25
-49 -47 -90 -50 -90 -3 0 15 41 40 90 25 50 47 90 50 90 3 0 -15 -40 -40 -90z
m2185 -142 c-17 -62 -44 -158 -60 -213 -32 -108 -74 -264 -84 -306 -3 -15 -13
-30 -22 -33 -13 -5 -14 -1 -9 27 12 62 78 282 85 287 8 5 28 71 82 270 18 69
34 115 36 103 2 -12 -11 -73 -28 -135z m-1477 107 c-3 -9 -8 -14 -10 -11 -3 3
-2 9 2 15 9 16 15 13 8 -4z m-23 -45 c-6 -11 -13 -20 -16 -20 -2 0 0 9 6 20 6
11 13 20 16 20 2 0 0 -9 -6 -20z m-809 -183 c-10 -9 -11 -8 -5 6 3 10 9 15 12
12 3 -3 0 -11 -7 -18z m692 -72 c-26 -52 -49 -93 -51 -91 -4 5 86 186 93 186
3 0 -16 -43 -42 -95z m1017 75 c-6 -11 -13 -20 -16 -20 -2 0 0 9 6 20 6 11 13
20 16 20 2 0 0 -9 -6 -20z m-1093 -156 c-35 -71 -88 -191 -118 -266 -29 -76
-57 -138 -61 -138 -4 0 -3 10 2 23 5 12 32 79 59 148 53 135 169 374 177 366
3 -3 -24 -63 -59 -133z m-707 45 c-48 -92 -141 -305 -165 -380 -18 -55 -44
-98 -30 -49 27 95 171 427 211 488 32 48 22 13 -16 -59z m48 26 c-12 -24 -23
-43 -26 -41 -4 5 36 86 43 86 3 0 -5 -20 -17 -45z m1707 4 c-19 -37 -27 -37
-19 -1 9 36 14 43 25 37 5 -4 2 -19 -6 -36z m-1750 -98 c-21 -43 -29 -39 -8 4
9 19 18 33 21 31 2 -2 -4 -18 -13 -35z m708 -36 c-9 -19 -18 -33 -21 -31 -4 5
26 66 33 66 3 0 -3 -16 -12 -35z m-37 -82 c-8 -15 -15 -25 -16 -21 0 12 23 58
27 54 3 -2 -2 -17 -11 -33z m-733 -13 c-3 -12 -8 -19 -11 -16 -5 6 5 36 12 36
2 0 2 -9 -1 -20z m-77 -151 c-9 -19 -15 -29 -16 -22 0 15 22 64 27 60 2 -2 -3
-19 -11 -38z m725 -6 c-12 -20 -14 -14 -5 12 4 9 9 14 11 11 3 -2 0 -13 -6
-23z m1637 -45 c-3 -13 -24 -108 -46 -213 -23 -104 -47 -229 -53 -277 -7 -48
-16 -85 -21 -82 -4 3 -6 -14 -4 -38 3 -35 2 -37 -4 -13 -5 19 -8 23 -9 11 0
-11 -3 -17 -5 -15 -8 8 33 268 49 304 8 20 12 41 9 49 -5 14 28 175 52 249 16
47 41 67 32 25z m-1723 -164 c-14 -50 -23 -71 -20 -48 5 44 36 147 42 141 2
-2 -8 -44 -22 -93z m-724 10 c-11 -38 -22 -78 -25 -89 -3 -11 -3 -2 -1 21 5
45 36 147 42 140 2 -2 -5 -35 -16 -72z m696 -136 c-3 -7 -5 -2 -5 12 0 14 2
19 5 13 2 -7 2 -19 0 -25z m923 -35 c-11 -17 -11 -17 -6 0 3 10 6 24 7 30 0 9
2 9 5 0 3 -7 0 -20 -6 -30z"/>
<path d="M4690 5703 l-55 -58 58 55 c31 30 57 56 57 57 0 8 -10 -1 -60 -54z"/>
<path d="M4403 5345 c0 -8 4 -12 9 -9 5 3 6 10 3 15 -9 13 -12 11 -12 -6z"/>
<path d="M2155 4402 c-11 -9 -31 -30 -45 -46 l-25 -30 31 25 c27 21 70 69 62
69 -2 0 -12 -8 -23 -18z"/>
<path d="M2065 4300 c-20 -22 -41 -27 -29 -7 6 9 4 9 -7 1 -8 -6 -42 -32 -76
-58 -34 -26 -66 -52 -70 -59 -4 -7 0 -7 10 2 9 7 17 11 17 8 0 -3 -52 -43
-115 -88 -76 -54 -112 -86 -105 -93 6 -6 57 26 147 95 125 95 267 218 252 219
-3 0 -14 -9 -24 -20z m-35 -24 c0 -2 -25 -22 -55 -45 -30 -23 -55 -39 -55 -37
0 5 102 85 108 86 1 0 2 -2 2 -4z"/>
<path d="M3360 4171 c8 -6 28 -11 44 -11 16 0 38 -7 48 -17 10 -9 18 -11 18
-5 0 16 -31 30 -81 37 -33 5 -40 4 -29 -4z"/>
<path d="M4090 4171 c8 -6 26 -11 40 -11 14 0 36 -7 48 -16 12 -8 22 -11 22
-5 0 15 -32 30 -81 36 -33 5 -40 4 -29 -4z"/>
<path d="M3308 4163 c7 -3 16 -2 19 1 4 3 -2 6 -13 5 -11 0 -14 -3 -6 -6z"/>
<path d="M3982 4153 c-64 -23 -46 -25 23 -3 33 10 51 19 40 19 -11 0 -39 -7
-63 -16z"/>
<path d="M3225 4141 c-53 -25 -43 -26 20 -1 28 10 43 19 35 19 -8 0 -33 -8
-55 -18z"/>
<path d="M3890 4115 c-14 -8 -20 -14 -15 -14 6 0 21 6 35 14 14 8 21 14 15 14
-5 0 -21 -6 -35 -14z"/>
<path d="M3130 4100 c-19 -11 -30 -19 -25 -19 6 0 26 8 45 19 19 11 31 19 25
19 -5 0 -26 -8 -45 -19z"/>
<path d="M1630 4014 c-85 -58 -275 -155 -286 -146 -5 3 -4 1 2 -7 9 -10 17
-10 33 -1 12 6 27 10 33 8 6 -2 -22 -18 -63 -36 -41 -17 -68 -31 -61 -32 7 0
56 20 109 45 105 49 107 50 97 34 -3 -6 8 -3 25 5 17 9 30 21 28 27 -1 7 4 14
12 17 10 3 11 0 5 -9 -8 -14 -1 -10 89 49 49 33 34 51 -17 21 -29 -17 -34 -24
-24 -31 10 -7 8 -8 -5 -4 -10 3 -34 -4 -55 -18 -56 -35 -105 -59 -98 -48 3 6
50 37 104 70 89 55 155 102 142 101 -3 0 -34 -20 -70 -45z m30 -29 c0 -2 -10
-9 -22 -15 -22 -11 -22 -10 -4 4 21 17 26 19 26 11z m-65 -45 c-3 -5 -12 -10
-18 -10 -7 0 -6 4 3 10 19 12 23 12 15 0z m-65 -40 c-8 -5 -19 -10 -25 -10 -5
0 -3 5 5 10 8 5 20 10 25 10 6 0 3 -5 -5 -10z"/>
<path d="M3383 3213 c9 -2 23 -2 30 0 6 3 -1 5 -18 5 -16 0 -22 -2 -12 -5z"/>
<path d="M3536 3199 c-51 -40 -26 -113 47 -135 54 -16 74 -68 40 -106 -9 -10
-11 -18 -5 -18 22 0 53 53 47 80 -9 35 -22 48 -77 76 -77 39 -74 107 6 117
l31 4 -31 1 c-19 1 -42 -6 -58 -19z"/>
<path d="M2630 3076 l0 -136 58 0 c79 0 126 15 156 51 22 25 26 41 26 90 0 51
-4 63 -29 91 -28 32 -32 33 -120 36 l-91 4 0 -136z m176 100 c24 -20 28 -32
32 -88 4 -61 2 -67 -25 -98 -27 -30 -37 -34 -92 -38 l-61 -4 0 126 0 126 59 0
c49 0 65 -5 87 -24z"/>
<path d="M2920 3075 c0 -113 2 -135 15 -135 13 0 15 21 15 130 l0 130 34 0
c42 0 66 -22 66 -59 0 -30 -27 -61 -53 -61 -9 0 -18 -4 -21 -9 -9 -14 86 -131
107 -131 22 0 18 7 -37 74 -24 30 -36 51 -29 53 66 22 86 100 33 128 -16 8
-52 15 -80 15 l-50 0 0 -135z"/>
<path d="M3140 3075 l0 -135 73 2 c69 2 70 2 15 5 l-58 4 0 64 0 64 48 4 47 3
-47 2 -48 2 0 54 0 55 53 4 c49 3 48 3 -15 5 l-68 2 0 -135z"/>
<path d="M3324 3185 c-28 -43 -9 -84 55 -115 55 -28 71 -43 71 -72 0 -28 -37
-58 -72 -59 -19 -1 -25 -3 -15 -6 49 -13 107 30 107 79 0 29 -41 78 -65 78 -7
0 -24 9 -39 21 -28 22 -35 66 -14 87 9 9 9 12 0 12 -6 0 -19 -11 -28 -25z"/>
<path d="M3317 2949 c7 -7 15 -10 18 -7 3 3 -2 9 -12 12 -14 6 -15 5 -6 -5z"/>
<path d="M3517 2949 c7 -7 15 -10 18 -7 3 3 -2 9 -12 12 -14 6 -15 5 -6 -5z"/>
<path d="M3563 2933 c9 -2 23 -2 30 0 6 3 -1 5 -18 5 -16 0 -22 -2 -12 -5z"/>
</g>
</svg>
